<?xml version="1.0" encoding="UTF-8"?>
<svg id="Layer_1" data-name="Layer 1" xmlns="http://www.w3.org/2000/svg" viewBox="0 0 812.72 101.58">
  <defs>
    <style>
      .cls-1 {
        fill: #5a5548;
      }

      .cls-1, .cls-2, .cls-3, .cls-4, .cls-5, .cls-6, .cls-7, .cls-8, .cls-9, .cls-10, .cls-11, .cls-12, .cls-13, .cls-14, .cls-15 {
        fill-rule: evenodd;
      }

      .cls-1, .cls-2, .cls-3, .cls-4, .cls-5, .cls-6, .cls-7, .cls-8, .cls-9, .cls-10, .cls-11, .cls-12, .cls-13, .cls-14, .cls-15, .cls-16, .cls-17, .cls-18, .cls-19, .cls-20, .cls-21, .cls-22, .cls-23, .cls-24, .cls-25, .cls-26, .cls-27, .cls-28, .cls-29, .cls-30, .cls-31, .cls-32, .cls-33, .cls-34, .cls-35, .cls-36, .cls-37, .cls-38, .cls-39, .cls-40, .cls-41, .cls-42, .cls-43, .cls-44, .cls-45, .cls-46 {
        stroke-width: 0px;
      }

      .cls-2 {
        fill: #504937;
      }

      .cls-3 {
        fill: #614937;
      }

      .cls-4, .cls-18 {
        fill: #625139;
      }

      .cls-5, .cls-31 {
        fill: #d9d9d9;
      }

      .cls-6, .cls-28 {
        fill: #e09c47;
      }

      .cls-7, .cls-30 {
        fill: #d68f54;
      }

      .cls-8 {
        fill: #dcb77e;
      }

      .cls-9 {
        fill: #ffd5d5;
      }

      .cls-10, .cls-38 {
        fill: #fff6dc;
      }

      .cls-11, .cls-44 {
        fill: #efe8dd;
      }

      .cls-12 {
        fill: #ff72ff;
      }

      .cls-13 {
        fill: #915f3a;
      }

      .cls-14, .cls-16 {
        fill: #f9d6ab;
      }

      .cls-15 {
        fill: #f9f9f9;
      }

      .cls-17 {
        fill: #f2f2f2;
      }

      .cls-19 {
        fill: #4d4d4d;
      }

      .cls-20 {
        fill: #543d2d;
      }

      .cls-21 {
        fill: #520;
      }

      .cls-22 {
        fill: #545454;
      }

      .cls-23 {
        fill: #947853;
      }

      .cls-24 {
        fill: #444;
      }

      .cls-25 {
        fill: #d3733c;
      }

      .cls-26 {
        fill: #df7d3d;
      }

      .cls-27 {
        fill: #e2b997;
      }

      .cls-29 {
        fill: #dfd9d0;
      }

      .cls-32 {
        fill: #d7b787;
      }

      .cls-33 {
        fill: #d08443;
      }

      .cls-34 {
        fill: #666;
      }

      .cls-35 {
        fill: #e3d192;
      }

      .cls-36 {
        fill: #fff;
      }

      .cls-37 {
        fill: #ededed;
      }

      .cls-39 {
        fill: #ffe69a;
      }

      .cls-40 {
        fill: #fff2e8;
      }

      .cls-41 {
        fill: #ffe6d5;
      }

      .cls-42 {
        fill: #eed997;
      }

      .cls-43 {
        fill: #ea8542;
      }

      .cls-45 {
        fill: #e5c594;
      }

      .cls-46 {
        fill: #676767;
      }
    </style>
  </defs>
  <path class="cls-43" d="m287.09,83.14c-2.01-2.51.04-9.72,4.03-11.47-1.51-4.02.39-8.51,3.37-9.96-1.18-3.52-.73-7.37,2.27-11.29-2.8-5.61-2.78-14.21,2.56-19.05-2.88,3.59-6.38,5.81-10.8,8.39-1.66,3.12-8.17,1.56-4.44-2.97-3.64,1.33-7.1.27-4.96-4.44-6.81.16-4.96-5.93.93-8.71,4.88-4.84,9.18-6.5,19.16-6.54-.2-3.43,6.62-8.38,11.92-6.43,3-4.17,11.39-4.41,15.34.53,6.34-2.14,11.36,1.9,13.02,6.89,6.04-2.74,15.08,3.7,18.52,6.44,6.38,2.38,8.42,8.41,2.55,9.39,2.12,3.12-.59,5.3-3.76,3.88,1.03,4.06-3.68,5.76-7.64,1.51-2.8-2.57-5.39-3.69-9.18-8.09,3.77,5.93,5.39,10.34,3.75,16.24,4.44,2.64,5.5,10.25,3.9,13.18,4.43,2.79,6.04,7.15,4.44,12.09,4.5,1.43,6.48,7,4.82,10.09l-69.81.34Zm0,0"/>
  <path class="cls-21" d="m307.42,27.1c-2.99.14-3.6,4.87.28,5.08,3.91.21,3.48-5.26-.28-5.08h0Zm0,0"/>
  <path class="cls-21" d="m318.29,35.23c-5.08.45-5.06,5.48-.02,5.78,6.23.37,5.94-6.31.02-5.78h0Zm0,0"/>
  <path class="cls-21" d="m318.73,40.18c-.27.05-.48.32-.48.6l-.1,4.78c0,.31.27.6.59.61.31,0,.61-.27.61-.59l.1-4.77c.02-.37-.36-.7-.72-.62h0Zm0,0"/>
  <path class="cls-21" d="m324.77,43.78c-.42.02-.7.57-.47.93.73,1.2.81,2.05.65,2.55-.16.5-.56.81-1.2.93-1.28.22-3.34-.57-4.38-2.65-.2-.42-.93-.38-1.1.05-.81,2.03-2.78,2.79-4.02,2.57-.62-.11-1-.41-1.15-.88-.15-.47-.06-1.27.7-2.43.21-.26.14-.7-.14-.88-.28-.18-.71-.07-.86.23-.88,1.33-1.15,2.5-.85,3.45.3.95,1.16,1.51,2.1,1.68,1.63.28,3.64-.58,4.82-2.45,1.35,1.9,3.42,2.77,5.1,2.47.96-.17,1.82-.76,2.12-1.72.3-.96.06-2.17-.78-3.55-.11-.19-.33-.31-.55-.3h0Zm0,0"/>
  <path class="cls-21" d="m330.09,26.98c2.99.14,3.6,4.87-.28,5.08-3.91.21-3.48-5.26.28-5.08h0Zm0,0"/>
  <path class="cls-46" d="m12.18,83.18c.82-4.92,4.15-18.48,4.51-20.57,5.37-9.05-3.68-23.77-1.57-32.72-1.6,2.78-3.68,5.41-6.19,7.34-1.77-2.15-11.25-13.86-8.39-20.94,4.18-3.23,11.76-9.39,17.83-9.8,3.79-2.41,20.61-.9,28.31.34,7.99,3.25,14.13,7.96,19.57,12.16.5,7.47-5.31,14.69-9.09,19.25-4.18-1.63-6.87-5.51-8.47-9.69,1.94,7.88-1.03,21.47.53,30.79,1.39,7.43,2.71,17.23,3.78,23.81l-40.83.03Zm0,0"/>
  <path class="cls-5" d="m28.38,40.11c-1.79-3.36-8.85-5.62-13.45-3.74-3.18,1.3-7.66,4.54-6.8,9.81.46-1.09,1.36-1.38,2.01-1.62-.68,1.55-1.06,3.3-.35,5.29.51-1.21,1.4-1.48,1.4-1.48-1.06,4.72-.38,7.78,1.82,9.74-.02-1.91.14-3.98.84-5.29.12,6.5.71,9.32,4.38,11.25.32-1.62-.18-2.92.37-4.51.07,3.26,1.65,5.48,3.93,6.55-.2-1.91.12-2.74.99-3.96,1.13,1.84,2.36,1.36,3.05.89,1.21.7,2.06.54,2.78-.12,1.32.85,2.11.61,2.86.15.49.46,1.74.85,2.93-.02.62.89,1.53.5,2.29.11.58,1.06,1.94.75,3.11-.49.09,2.18-1.17,3.3-.68,4.4,2.64-1.83,3.68-3.32,4.14-5.67.3.88-.28,2.43.08,3.73,3.7-2.29,5.16-7.59,5.62-8.86.74.33,1.32,1.4,1.77,2.51,1.95-3.19,2.48-8.54,2.38-11.05.74.78,1.2,1.39,1.56,2.57.74-2.07.66-3.72-.99-6.34,1.48.43,2.41,1.04,3.08,1.68-.72-4.79-3.07-8.89-8.56-9.69-5.02-2.33-11.7,1.16-13.8,4.67-2.04-1.03-5.02-.84-6.72-.51h0Zm0,0"/>
  <path class="cls-5" d="m25.77,22.53c.19-1.24-.43-2.55-3.12-2.92.57,1.32-.3.39-1.25.79-1.69-.02-1.82.68-2.62,1.16-.97,1-.65,2.21-1.08,2.91,2.9-1.41,4.45.04,6.33,1.16,1.35-.39,2.22-1.36,1.75-3.1h0Zm0,0"/>
  <path class="cls-5" d="m38.41,22.83c-.04-.97,1.29-2.46,3.41-3.52-.39.77-.29,1.07.09,1.84,1.07-.81,2.16-1.41,2.73-.78-.2.76.17.02-.29,1.17,1.09-.3,1.96-.3,2.23-.39.25,1.28.28,2.18.78,3.01-4.16-1.71-8.17,3.7-8.94-1.34h0Zm0,0"/>
  <path class="cls-17" d="m16.2,35.63c-1.39-.24-2.92.4-4.27,1.47-1.35,1.07-2.54,2.61-3.12,4.38-.1.3.09.66.39.76.3.1.66-.09.76-.39.5-1.5,1.55-2.86,2.73-3.8,1.18-.94,2.48-1.4,3.32-1.25.32.09.7-.15.76-.48.05-.33-.22-.68-.56-.7h0Zm0,0"/>
  <path class="cls-17" d="m14.05,41.36s-.07.03-.1.05c-1.88.69-3.4,2.2-4.12,4.78-.12.31.08.7.4.79.32.09.69-.14.75-.47.64-2.28,1.84-3.41,3.4-3.98.31-.09.51-.44.43-.75-.09-.31-.44-.51-.75-.43h0Zm0,0"/>
  <path class="cls-17" d="m14.45,45.41s-.03.01-.05.03c-.57.1-1,.46-1.47,1-.47.53-.91,1.26-1.25,2.12-.68,1.73-.89,4.05.32,6.52.12.31.52.46.82.32.3-.15.42-.56.25-.84-1.06-2.16-.85-4.11-.27-5.58.29-.73.66-1.33,1.02-1.75.37-.42.77-.62.8-.62.31-.04.56-.37.51-.69-.05-.31-.37-.56-.69-.51h0Zm0,0"/>
  <path class="cls-17" d="m20.02,46.08c-.13.02-.26.1-.35.2-1.19,1.29-3.25,3.65-4.35,6.43-.55,1.39-.85,2.89-.65,4.4.2,1.51.93,3.04,2.35,4.38.23.22.64.21.85-.02.21-.23.2-.63-.02-.85-1.25-1.18-1.81-2.4-1.98-3.65-.17-1.25.08-2.54.57-3.8.99-2.51,2.95-4.8,4.1-6.05.37-.35-.02-1.12-.53-1.02h0Zm0,0"/>
  <path class="cls-17" d="m24.2,48.46c-.05.01-.1.03-.15.05-.73.33-1.26,1.09-1.88,2.15-.61,1.06-1.21,2.4-1.68,3.93-.92,3.04-1.3,6.75.25,9.73.14.28.53.41.81.26.28-.14.41-.53.26-.81-1.32-2.54-1.04-5.96-.18-8.82.44-1.43,1.02-2.72,1.58-3.68.56-.96,1.19-1.59,1.32-1.65.3-.09.49-.45.4-.75-.09-.3-.45-.49-.75-.4h0Zm0,0"/>
  <path class="cls-17" d="m49.07,35.21c-.28,0-.54.24-.57.52s.16.57.43.65c3.55,1.19,5.32,3.59,6.22,6.05.08.32.47.53.79.42.32-.11.48-.52.34-.82-1-2.7-3.04-5.46-6.95-6.77-.08-.03-.16-.05-.25-.05h0Zm0,0"/>
  <path class="cls-17" d="m49.73,40.96c-.31,0-.59.29-.59.6s.28.59.59.6c1.93.3,3.21,2.22,4,3.9.09.33.52.52.83.38.31-.15.44-.59.25-.88-.85-1.81-2.29-4.2-4.88-4.6-.07-.01-.13-.01-.2,0h0Zm0,0"/>
  <path class="cls-17" d="m49.4,45.01c-.31-.01-.61.26-.62.57-.01.31.26.61.58.62.03,0,.46.21.85.62.39.42.8,1.03,1.12,1.75.65,1.44.93,3.31.03,5.3-.13.29.01.67.3.8.29.13.67-.01.8-.3,1.06-2.34.73-4.62-.02-6.3-.38-.84-.87-1.53-1.35-2.05-.48-.52-.93-.89-1.5-1-.05-.02-.11-.02-.18-.02h0Zm0,0"/>
  <path class="cls-17" d="m43.75,45.68c-.43.08-.62.72-.3,1.02,1.31,1.32,2.97,3.93,3.6,6.62.62,2.7.3,5.4-2.25,7.43-.25.2-.3.6-.1.85.2.25.6.3.85.1,2.93-2.33,3.37-5.67,2.68-8.65-.69-2.98-2.43-5.69-3.93-7.2-.14-.15-.36-.21-.55-.17h0Zm0,0"/>
  <path class="cls-17" d="m37.7,48.21c-.47.12-.54.92-.1,1.12.18.08.86.7,1.5,1.62.64.93,1.32,2.16,1.85,3.57,1.05,2.82,1.49,6.28,0,9.28-.17.28-.04.7.25.84.3.14.7-.01.82-.32,1.69-3.41,1.18-7.21.05-10.23-.56-1.51-1.28-2.81-1.97-3.82-.7-1.01-1.32-1.71-2-2.02-.12-.06-.27-.08-.4-.05h0Zm0,0"/>
  <path class="cls-21" d="m30.6,38.92c-5.7.39-7.38,8.45.7,8.45,7.55,0,7.71-9.02-.7-8.45h0Zm0,0"/>
  <path class="cls-21" d="m31.27,47.08c-.29.04-.53.31-.52.6v3.55c0,.32.28.61.6.61s.6-.29.6-.61v-3.55c0-.34-.34-.65-.68-.6h0Zm0,0"/>
  <path class="cls-21" d="m31.15,50.86c-.07.01-.14.04-.2.08-3.54,2.28-6.96,6.61-6.3,11.12.05.31.38.56.69.51.32-.05.56-.38.52-.69-.54-3.67,2.3-7.52,5.42-9.68,1.49.9,3.04,2.34,4.12,4.05,1.16,1.83,1.8,3.88,1.45,5.75-.09.32.14.69.46.75.32.06.67-.19.71-.52.42-2.27-.35-4.62-1.62-6.63-1.27-2-3.05-3.68-4.85-4.67-.12-.07-.27-.1-.4-.08h0Zm0,0"/>
  <path class="cls-17" d="m27.88,57.98c-.21.05-.39.22-.45.43-.2.66-.32,1.19-.25,1.7.07.51.32.98.65,1.38.2.24.61.28.85.08.24-.2.28-.61.07-.85-.26-.31-.34-.5-.38-.75-.03-.25.02-.61.2-1.2.13-.4-.29-.87-.7-.78h0Zm0,0"/>
  <path class="cls-17" d="m29.85,57.98c-.21.05-.4.22-.45.43-.39,1.3.15,2.25.53,2.85.16.27.55.36.82.2s.36-.56.2-.82c-.38-.62-.68-.96-.4-1.88.13-.4-.29-.87-.7-.78h0Zm0,0"/>
  <path class="cls-17" d="m32.15,57.83c-.2.04-.38.18-.45.38-.57,1.32.47,2.55.5,2.6.16.27.56.36.82.2.27-.16.36-.56.2-.82-.29-.47-.71-.86-.43-1.5.19-.4-.22-.93-.65-.85h0Zm0,0"/>
  <path class="cls-17" d="m34.63,57.68c-.48.05-.68.78-.3,1.07v.02c.01.12,0,.34-.02.57-.06.51-.23,1.12-.32,1.4-.16.31.01.73.34.84.33.11.72-.13.78-.47.13-.39.3-1.01.38-1.62.04-.31.06-.6.02-.9-.02-.15-.04-.31-.13-.47-.09-.16-.26-.35-.5-.43-.08-.03-.17-.04-.25-.02h0Zm0,0"/>
  <path class="cls-21" d="m20.71,23.85c4.26-.06,4.51,6.02.13,5.88-4.85-.16-2.98-5.84-.13-5.88h0Zm0,0"/>
  <path class="cls-21" d="m43.3,23.84c-4.26-.05-4.51,6.02-.13,5.88,4.85-.16,2.98-5.84.13-5.88h0Zm0,0"/>
  <path class="cls-17" d="m22.45,19.16c-.23.05-.4.29-.38.52.02.24.25.43.48.43.87,0,1.46.19,1.9.55.44.36.76.92.98,1.68.07.24.36.4.6.32.24-.07.4-.36.33-.6-.25-.88-.67-1.61-1.3-2.12-.64-.52-1.48-.78-2.5-.78-.04,0-.07,0-.1,0h0Zm0,0"/>
  <path class="cls-17" d="m41.23,19.16c-2.41.61-3.21,2.12-3.65,3.25-.09.24.04.54.28.62.23.09.53-.04.63-.27.41-1.07.88-2.12,3-2.65.25-.06.41-.35.35-.6-.07-.25-.35-.42-.6-.35h0Zm0,0"/>
  <path class="cls-17" d="m44.23,19.78c-1.15-.15-2.25.29-2.87,1.07-.16.2-.12.53.09.69.2.16.53.12.69-.09.38-.48,1.15-.81,1.98-.7.25.03.51-.17.55-.43.04-.25-.17-.51-.42-.55h0Zm0,0"/>
  <path class="cls-17" d="m45.02,20.71c-.36.08-.74.2-1,.57-.14.21-.08.53.12.68.21.15.53.09.68-.12-.01.02.16-.12.4-.18.24-.05.55-.04.6-.02.24.07.53-.08.61-.32.07-.24-.09-.53-.33-.6-.36-.11-.71-.08-1.08,0h0Zm0,0"/>
  <path class="cls-17" d="m21.3,19.66c-.45.09-.41.91.05.95.71.09,1.24.6,1.5.88.16.21.51.25.71.06.2-.18.19-.54,0-.71-.28-.29-1-1.04-2.1-1.18-.05,0-.1,0-.15,0h0Zm0,0"/>
  <path class="cls-17" d="m20.43,20.83c-.49-.12-1.1-.13-1.68.15-.23.11-.34.42-.23.65.11.23.42.34.65.22.34-.17.7-.18,1-.1.3.07.53.27.55.3.13.21.44.29.66.16.21-.13.29-.44.16-.66-.24-.39-.63-.6-1.12-.73h0Zm0,0"/>
  <path class="cls-17" d="m75.04,83.04c-.09-7.99,5.53-16.66,4.88-23.5-.46-4.84-3.77-11.2-2.64-17.64-.55.75-1.17,1.9-1.91,3.01-3.04-1.82-8.92-10.53-8.77-15.93.14-5.12,8.8-9.67,14.3-12.02,6.13-7.71,31.26-8.02,37.7,0,5.27,2.94,14.5,8.06,14.95,11.7.74,5.95-6.02,14.14-8.45,15.6-1.07-1.04-1.93-2.2-2.44-2.86,1.23,8.07-2.06,12.27-2.11,17.81-.07,7.91,6.53,14.89,6.18,23.83h-51.67Zm0,0"/>
  <path class="cls-21" d="m99.45,39.42c5.21-.29,5.13,6.5.47,6.79-7.03.44-6.33-6.46-.47-6.79h0Zm0,0"/>
  <path class="cls-21" d="m99.45,44.88c-.29,0-.54.27-.52.55v5.2c0,.27.25.52.52.52s.53-.25.53-.52v-5.2c.02-.29-.24-.56-.53-.55h0Zm0,0"/>
  <path class="cls-21" d="m92.13,49.78c-.22.03-.41.21-.45.43-.31,1.6-.15,2.88.4,3.8.54.92,1.48,1.44,2.48,1.5,1.77.11,3.69-1.15,4.93-3.45,1.23,2.33,3.2,3.57,4.97,3.47,1-.06,1.93-.58,2.48-1.5.54-.92.69-2.18.38-3.77,0-.31-.32-.57-.62-.51-.3.06-.5.43-.38.71.28,1.43.1,2.41-.28,3.05-.37.64-.95.96-1.65,1-1.4.08-3.37-1.09-4.4-3.73-.15-.39-.83-.39-.98,0-1.04,2.62-3,3.79-4.4,3.7-.7-.04-1.25-.36-1.63-1-.38-.63-.55-1.65-.28-3.07.07-.32-.25-.67-.57-.62h0Zm0,0"/>
  <path class="cls-21" d="m113.18,29.11c-1.27.02-2.64.53-3.85,1.25-1.21.72-2.28,1.64-2.77,2.68-.12.25,0,.58.25.7.25.12.58,0,.7-.25.35-.72,1.26-1.6,2.35-2.25,1.09-.65,2.36-1.08,3.35-1.1.3.04.6-.23.59-.53,0-.3-.32-.56-.62-.5h0Zm0,0"/>
  <path class="cls-3" d="m93.74,11.41c5.52,12.51-8.2,31.91-16.52,36.91-.42-2.5-.52-4.46.05-6.26-.44.88-1.24,2.21-1.95,3.1-4.1-3.68-9.85-10.27-8.83-17.25.43-2.97,7.18-8.86,14.1-10.99,2.44-3.96,8.89-4.89,13.15-5.51h0Zm0,0"/>
  <path class="cls-41" d="m88.55,27.57c-4.73.46-4.75,6.94.48,6.95,4.97.01,4.4-7.42-.48-6.95h0Zm0,0"/>
  <path class="cls-21" d="m88.71,29.31c-2.12.15-2.42,3.45.32,3.32,2.68-.13,1.88-3.48-.32-3.32h0Zm0,0"/>
  <path class="cls-3" d="m118.79,16.98c-.39,8.26.68,23.25,6.36,27.67,4.52-3.94,9.71-11.51,8.23-16.79-.73-2.62-9.22-8.5-14.58-10.88h0Zm0,0"/>
  <path class="cls-25" d="m129.75,82.74c0-3.49,2.4-8.38,4.84-12.75-1.16-6.93-2.88-13.08-1.7-17.27,0-6.33,6.18-12.11,8.98-17.89-.76-4.42,3.07-11.57,5.46-14.55,3.88,3.78,8.22,7.05,9.55,11.21,2.84-.63,5.77-.35,8.64-.1,1.2-4.65,6.41-8.15,8.79-11.11,4.63,4.01,7.15,9.91,7.88,14.86,3.96,5.6,10,11.48,10,18.19.34,5.18.27,9.72-1.82,16.68,2.13,2.92,5.07,9.11,5.89,12.99l-66.52-.26Zm0,0"/>
  <path class="cls-14" d="m162.21,50.43c-3.62.12-5.43,3.07-8.26,3.62-6.79-.52-3.01,8.18,2.41,11.53.86,2.41-4.89,11.27-1.5,17.28,5.28.28,10.64-.03,15.68.14,3.62-6.02-2.15-14.88-1.61-17.42,4.65-3.22,8.13-12.05.69-12.05-2.87-.66-3.48-3.24-7.41-3.1h0Zm0,0"/>
  <path class="cls-21" d="m161.99,51.67c-4,.13-5.08,6.05.6,5.8,4.93-.22,3.91-5.94-.6-5.8h0Zm0,0"/>
  <path class="cls-21" d="m162.2,56.48c-.23.07-.4.31-.38.55l.12,2.62c-.04.3.24.59.54.58.3-.01.55-.33.48-.63l-.12-2.62c0-.31-.35-.58-.65-.5h0Zm0,0"/>
  <path class="cls-21" d="m169.32,57.21c-.2.04-.36.2-.4.4-.31,1.31-.68,2.14-1.05,2.58-.37.44-.7.56-1.15.55-.91-.02-2.34-.87-4.03-1.62-.14-.06-.31-.05-.45.03-1.62.78-2.88,1.52-3.65,1.52-.39,0-.66-.11-1-.52-.35-.41-.72-1.16-1.05-2.35-.05-.28-.38-.48-.65-.4-.28.08-.45.41-.35.68.36,1.27.75,2.15,1.25,2.75.5.6,1.14.9,1.8.9,1.24,0,2.46-.8,3.9-1.52,1.5.7,2.85,1.54,4.2,1.57.71.02,1.44-.26,1.98-.9.54-.64.92-1.61,1.25-3,.09-.34-.25-.71-.6-.65h0Zm0,0"/>
  <path class="cls-14" d="m155.16,49.12c1.04-1.22.73-2.87.12-4.07-4.75-9.51-13.57,6.3-5.31,6.3,2.65,0,3.62-.27,5.19-2.22h0Zm0,0"/>
  <path class="cls-21" d="m151.4,44.53c-3.33-.08-4.36,5.85.8,5.67,3.81-.14,4.17-5.55-.8-5.67h0Zm0,0"/>
  <path class="cls-14" d="m167.63,48.86c-1.04-1.22-.72-2.87-.12-4.07,4.75-9.51,13.57,6.3,5.31,6.3-2.65,0-3.62-.26-5.19-2.22h0Zm0,0"/>
  <path class="cls-21" d="m171.37,44.4c3.33-.07,4.36,5.85-.8,5.67-3.81-.14-4.17-5.55.8-5.67h0Zm0,0"/>
  <path class="cls-45" d="m375.02,82.84c.42-11.39,5.16-13.48,4.89-19.84-.18-4.17-4.29-6.75-4.16-11.41-.3,8.96-1.54,16.55-5.57,16.52-5.74-.04-9.91-18.91-8.41-27.65,2.74-7.55,7.61-12.8,14.47-15.5,2.02-4.14,9.74-7.57,16.57-7.44,6.83.13,13.75,3.94,17.29,7.99,7.82,3.2,10.54,7.9,13.64,13.08,2.52,7.75-1.7,28.71-6.18,29-4.38.28-6.83-7.11-8.02-15.89-.16,4.2-4.68,7.76-4.41,11.31.55,7.23,6.04,8.68,5.86,19.84h-35.98Zm0,0"/>
  <path class="cls-21" d="m391.93,44.73c5.15.18,4.95,5.71,0,5.66-5.25-.06-4.11-5.8,0-5.66h0Zm0,0"/>
  <path class="cls-41" d="m382.61,34.54c-4.61-.03-4.19,6.77.12,6.71,4.39-.05,4.46-6.68-.12-6.71h0Zm0,0"/>
  <path class="cls-21" d="m382.46,35.81c-2.56.17-2.33,3.78.28,3.92,2.78.15,2.85-4.13-.28-3.92h0Zm0,0"/>
  <path class="cls-41" d="m401.08,34.66c4.61-.03,4.19,6.77-.12,6.71-4.39-.05-4.46-6.68.12-6.71h0Zm0,0"/>
  <path class="cls-21" d="m401.23,35.94c2.56.17,2.33,3.78-.28,3.92-2.78.15-2.86-4.13.28-3.92h0Zm0,0"/>
  <path class="cls-21" d="m391.93,48.86c-.27.06-.48.32-.48.6v5.1c0,.32.29.6.6.6s.61-.29.6-.6v-5.1c0-.36-.37-.68-.72-.6h0Zm0,0"/>
  <path class="cls-21" d="m397.95,51.88c-.32.07-.54.43-.45.75.45,1.61.45,2.77.25,3.45-.2.68-.48.89-.95.95-.46.07-1.17-.11-1.93-.62-.75-.52-1.55-1.35-2.23-2.45-.21-.35-.81-.35-1.02,0-.68,1.18-1.47,2.09-2.23,2.65-.75.57-1.46.78-1.92.73-.46-.05-.76-.25-.95-.93-.2-.67-.17-1.81.28-3.43.09-.31-.12-.66-.43-.75-.31-.08-.66.12-.75.43-.49,1.75-.54,3.09-.25,4.1.29,1.01,1.07,1.68,1.98,1.77.9.1,1.83-.29,2.75-.97.72-.54,1.41-1.34,2.05-2.28.64.87,1.33,1.61,2.05,2.1.92.63,1.86.97,2.75.85.89-.12,1.66-.81,1.95-1.82.3-1.01.24-2.36-.25-4.1-.08-.29-.41-.49-.7-.43h0Zm0,0"/>
  <path class="cls-8" d="m375.78,36.56c-.63-2.2-.6-8.17.49-11.46-9.01,2.1-14.65,13.25-14.96,15.76-1.16,9.55,3,28.69,9.3,27.71,6.46-1.01,5.17-22.15,5.17-32.02h0Zm0,0"/>
  <path class="cls-8" d="m409.01,37.17c.87-2.44,1.46-8.29,1.11-11.7,7.29,1.61,13.27,10.59,14.1,13.54,2.07,7.43-1.84,28.98-6.84,28.94-7.64-.06-8.37-20.91-8.37-30.79h0Zm0,0"/>
  <path class="cls-22" d="m424.17,83.04c-.32-6.06,1.7-17.25,3.98-24.77-2.02-12.11-1.03-25.85,4.35-33.17,0-3.86,3.33-13.98,9.23-18.86,5.54,4.87,6.31,9.18,8.2,14.45,3.86-1.25,12.65-1.81,16.48.77,1.63-6.96,3.77-11.03,9.25-15.21,5.04,4.51,7.28,14.36,7.9,18.91,5.77,8.49,6.28,21.81,4.25,33.34,3.8,7.52,5.72,18.37,5.43,24.64l-69.06-.08Zm0,0"/>
  <path class="cls-6" d="m457.69,37.76c-20.83.06-9.96,22.11.54,22.09,10.5-.02,20.29-22.16-.54-22.09h0Zm0,0"/>
  <path class="cls-21" d="m444.34,32.34c-3.08.12-3.59,5.14.44,5.07,3.41-.05,3.63-5.23-.44-5.07h0Zm0,0"/>
  <path class="cls-21" d="m457.28,40.82c-4,.08-4.82,6.16.71,5.76,4.81-.35,4.32-5.86-.71-5.76h0Zm0,0"/>
  <path class="cls-21" d="m457.88,45.96c-.32,0-.61.3-.6.62v4c0,.32.29.61.6.61s.61-.29.6-.61v-4c.01-.32-.28-.62-.6-.62h0Zm0,0"/>
  <path class="cls-21" d="m450.13,50.33c-.28.04-.52.29-.52.57-.12,2.09.24,3.51,1.02,4.38.78.87,1.94,1.01,3,.73,1.67-.46,3.3-1.81,4.2-3.45.9,1.69,2.53,3.1,4.2,3.57,1.06.3,2.24.14,3.03-.73.78-.87,1.12-2.28,1-4.38.05-.35-.28-.7-.63-.68-.36.02-.63.41-.54.75.11,1.92-.25,3-.7,3.5-.45.5-1.04.6-1.82.38-1.57-.44-3.51-2.41-3.93-4.12-.11-.54-1.07-.54-1.18,0-.41,1.65-2.36,3.57-3.93,4-.78.21-1.38.12-1.82-.38-.45-.5-.81-1.58-.7-3.5.03-.36-.32-.7-.68-.65h0Zm0,0"/>
  <path class="cls-21" d="m469.82,32.44c3.08.12,3.59,5.14-.44,5.07-3.41-.06-3.63-5.23.44-5.07h0Zm0,0"/>
  <path class="cls-28" d="m447.07,28.03c-2.65-.69-2.52,3.23.33,3.45,2.48.19,1.94-2.86-.33-3.45h0Zm0,0"/>
  <path class="cls-28" d="m467.28,28.31c2.65-.68,2.52,3.23-.33,3.44-2.48.19-1.94-2.86.33-3.44h0Zm0,0"/>
  <path class="cls-6" d="m444.38,82.85c-3.4-14.79,11.44-6.38,14.62-6.5,3.71-.14,17.49-8.72,13.67,6.4l-28.29.1Zm0,0"/>
  <path class="cls-17" d="m508.4,82.88c1.61-6.6,4.52-10.51,4.25-15.93-.3-6.16-4.02-7.7-3.91-18.31.81,11.78,2.05,24.97-4.97,25.01-8.69.05-13.16-27.18-11.67-36.41.76-4.74,4.67-10.47,16.88-18.43,3.6-5.92,12.54-10.72,23.23-11.36,10.69-.64,22.55,5.12,25.82,13.36,14.67,8.15,18.11,11.6,19.25,18.07,1.34,7.57-5.7,34.72-11.6,34.82-10.36.18-7.79-14.02-7.16-26.21-.24,11.68-5.01,12.46-5.03,19.49-.01,6.24,3.38,9.65,5.9,16.08l-50.99-.18Zm0,0"/>
  <path class="cls-21" d="m531.2,39.97c-4.5.21-5.88,6.34.88,6.4,5.15.04,6.5-6.73-.88-6.4h0Zm0,0"/>
  <path class="cls-21" d="m532.2,45.48c-.27.06-.48.32-.47.6l-.13,7.02c0,.32.27.61.59.61.31,0,.61-.27.61-.59l.12-7.03c.02-.37-.36-.7-.73-.62h0Zm0,0"/>
  <path class="cls-21" d="m521.3,47.66c-.27.05-.49.3-.5.57-.05,1.01-.41,3.82-.18,6.48.12,1.32.4,2.62.98,3.7.57,1.08,1.5,1.94,2.82,2.18,1.19.21,2.25-.21,3.1-.88.85-.67,1.54-1.57,2.15-2.48.61-.91,1.15-1.81,1.62-2.45.24-.32.47-.58.65-.72.18-.15.29-.15.35-.15.13,0,.54.27,1.02.93.48.66,1.02,1.59,1.62,2.5.61.91,1.3,1.83,2.15,2.5.85.67,1.93,1.09,3.12.88,1.32-.23,2.25-1.09,2.82-2.18.57-1.08.83-2.4.95-3.72.24-2.65-.1-5.45-.15-6.45-.02-.31-.31-.59-.62-.57-.32.01-.59.31-.58.62.05,1.17.4,3.83.18,6.3-.11,1.24-.37,2.4-.82,3.25-.45.86-1.03,1.41-1.98,1.57-.82.14-1.5-.12-2.17-.65-.68-.53-1.32-1.35-1.9-2.23-.58-.87-1.11-1.79-1.65-2.52-.54-.74-1.08-1.4-1.95-1.43-.44-.01-.84.18-1.15.43-.31.25-.58.56-.85.93-.54.72-1.07,1.63-1.65,2.5-.58.86-1.22,1.67-1.9,2.2-.68.53-1.35.79-2.18.65-.94-.16-1.52-.7-1.98-1.55-.45-.85-.71-2.02-.82-3.25-.22-2.47.12-5.15.18-6.32.02-.36-.35-.68-.7-.62h0Zm0,0"/>
  <path class="cls-13" d="m511.02,61.07c-1.2-3.7-1.6-1.73-1.51-4.34.07,4.41.72,17.29-5.29,17.75-9.9.75-15.78-32.59-11.6-40.55,2.77-5.27,10.42-13.2,15.8-14.91,4.01-7.66,14.01-11,21.87-11.66-1.14,23.68-8.88,41.28-19.27,53.71h0Zm0,0"/>
  <path class="cls-13" d="m554.86,61.46c1.13-1.71,2.24-3.16,3-6.75-.69,10.16-.57,19.55,7.18,19.66,7.59.1,15.09-29.67,11.6-39.24-2-5.47-13.12-12.7-18.5-14.41-1.94-7.1-12.25-14.02-24.82-13.54,1.14,23.68,11.15,41.85,21.53,54.28h0Zm0,0"/>
  <path class="cls-41" d="m519.4,28.97c-5.38-.06-5.83,8.01.31,7.67,4.75-.26,4.82-7.61-.31-7.67h0Zm0,0"/>
  <path class="cls-21" d="m518.94,30.29c-2.96.36-3.03,5.2.8,4.8,3.17-.34,2.22-5.16-.8-4.8h0Zm0,0"/>
  <path class="cls-41" d="m545.18,29.01c5.38-.06,5.83,8.01-.31,7.67-4.74-.26-4.82-7.61.31-7.67h0Zm0,0"/>
  <path class="cls-21" d="m545.64,30.33c2.97.36,3.04,5.2-.8,4.8-3.17-.34-2.22-5.16.8-4.8h0Zm0,0"/>
  <path class="cls-44" d="m610.95,24.89h-10.09c-22.07-.09-21.66,33.54-24.96,58.06l62.03-.09c-3.48-24.45-5.16-58.05-26.97-57.97h0Zm0,0"/>
  <path class="cls-23" d="m601.98,28.26c-18.48-.69-15.3,35.68-17.72,54.82l10.48-.15c3.19-16.71-.29-42.97,11.16-43.45,11.28-.47,8.33,26.5,11.7,43.45l10.95.31c-2.65-20.12,0-56.34-18.72-54.98h-7.85Zm0,0"/>
  <path class="cls-21" d="m606.07,47.41c-.3.04-.54.33-.52.62l.02,4.07c0,.32.29.61.6.61s.6-.29.6-.61l-.02-4.1c0-.34-.34-.64-.68-.6h0Zm0,0"/>
  <path class="cls-21" d="m601.77,50.23c-.18.03-.34.14-.42.3-.75,1.34-.99,2.39-.75,3.25.23.86,1.03,1.35,1.82,1.43.79.08,1.64-.13,2.4-.57.5-.29.92-.72,1.28-1.2.41.48.88.88,1.42,1.17.82.44,1.7.7,2.53.65.82-.05,1.65-.5,1.93-1.35.27-.85.02-1.91-.73-3.25-.13-.32-.56-.46-.86-.29-.3.18-.38.62-.16.89.67,1.2.71,1.93.6,2.27-.11.34-.33.49-.85.53-.52.03-1.23-.15-1.88-.5-.65-.35-1.21-.85-1.5-1.43-.21-.42-.94-.39-1.1.05-.23.58-.7,1.07-1.27,1.4-.58.33-1.24.5-1.7.45-.46-.04-.67-.18-.77-.55-.1-.37-.02-1.15.65-2.35.24-.39-.17-.98-.62-.9h0Zm0,0"/>
  <path class="cls-21" d="m605.82,43.41c-3.47.04-4.15,4.41.1,4.61,4.82.22,3.94-4.66-.1-4.61h0Zm0,0"/>
  <path class="cls-21" d="m595.71,39.93c-2.94-.13-3.91,4.75.05,4.64,3-.09,3.15-4.5-.05-4.64h0Zm0,0"/>
  <path class="cls-21" d="m616.63,39.78c2.94-.13,3.92,4.75-.05,4.64-3-.09-3.14-4.5.05-4.64h0Zm0,0"/>
  <path class="cls-18" d="m584.11,83.07c2.42-19.14-.61-55.5,17.87-54.82h7.85c18.72-1.36,16.21,34.72,18.86,54.84l3.96-.12c-2.98-22.21-2.05-58.71-22.5-57.23h-8.58c-20.19-.75-18.3,36.07-20.97,57.32h3.51Zm0,0"/>
  <path class="cls-20" d="m601.98,27.66c-4.8-.17-8.32,2.08-10.75,5.73-2.43,3.65-3.87,8.69-4.8,14.32-1.87,11.27-1.7,24.93-2.9,34.43-.1.33.16.72.5.77.34.04.69-.27.68-.62,1.22-9.64,1.09-23.27,2.93-34.37.92-5.55,2.33-10.46,4.6-13.88,2.27-3.41,5.3-5.34,9.72-5.18h7.88s.04,0,.05,0c4.49-.32,7.56,1.48,9.9,4.78,2.34,3.3,3.86,8.15,4.85,13.68,1.99,11.06,1.99,24.87,3.32,35-.01.34.33.66.68.61.34-.04.6-.43.5-.77-1.32-9.99-1.3-23.84-3.32-35.07-1.01-5.62-2.51-10.6-5.03-14.15-2.5-3.54-6.11-5.61-10.95-5.28h-7.85Zm0,0"/>
  <path class="cls-11" d="m600.6,42.65c-5.04-5.57.23-15.76,4.66-16,5.48-.29,11.26,8.96,6.68,16.6-3.91-5.18-7.52-4.03-11.34-.6h0Zm0,0"/>
  <path class="cls-4" d="m600.38,43.19c-4.7-5.93-.25-16.8,5.54-16.66s10.2,8.89,6.18,16.92c-.66-.56-1.44-1.79-2.18-2.24,1.18-6.69-1.07-12.59-3.92-12.67-2.85-.07-5.16,6.12-3.48,12.51-.87.62-1.96,1.83-2.15,2.14h0Zm0,0"/>
  <path class="cls-20" d="m609.32,27.66c-.46.08-.62.8-.25,1.07,1.97,1.58,3.66,4.97,3.53,8.48-.02.31.26.61.57.62.31.01.61-.26.62-.57.15-3.9-1.62-7.59-3.98-9.48-.14-.11-.32-.16-.5-.12h0Zm0,0"/>
  <path class="cls-20" d="m602.23,27.66c-.09.02-.18.07-.25.12-2.37,1.9-3.98,5.68-3.95,9.45,0,.32.29.61.6.61s.6-.29.6-.61c-.03-3.41,1.54-6.93,3.5-8.5.23-.16.33-.49.21-.75-.12-.26-.44-.4-.71-.32h0Zm0,0"/>
  <path class="cls-12" d="m602.86,23.55c-1.22-2.09-3.25-3.85-6.16-3.36-2.77,3.71-2.01,7.24,0,11.02,2.59-.35,4.77-1.7,5.98-2.43,1.6,1.24,4.35,1.45,5.98,0,1.71.27,4.88,1.31,6.5,1.31,1.95-3.5,2.21-6.81-.38-9.9-3.22-.56-5.57,1.62-6.5,3.18-1.46-.77-3.73-.82-5.42.19h0Zm0,0"/>
  <path class="cls-20" d="m605.88,38.88c-3.09.13-5.25,2.07-6.65,4.97-1.41,2.91-2.18,6.79-2.68,11.18-1,8.77-.98,19.51-2.55,27.78-.06.31.17.65.49.71.31.06.65-.17.71-.49,1.61-8.45,1.56-19.19,2.55-27.85.5-4.33,1.26-8.12,2.55-10.8,1.29-2.68,2.99-4.19,5.62-4.3,2.58-.11,4.24,1.24,5.52,3.82,1.29,2.59,2.06,6.4,2.57,10.75,1.04,8.7,1.1,19.63,2.8,28.2.04.33.39.59.71.52.32-.06.55-.43.47-.75-1.66-8.38-1.72-19.31-2.77-28.13-.53-4.41-1.3-8.29-2.7-11.12-1.4-2.83-3.59-4.63-6.65-4.5h0Zm0,0"/>
  <path class="cls-39" d="m712.67,83.02c-.86-5.15,6.44-15.42,2.87-20.67-3.81-5.6-5.53-11.8-3.59-17.8-6.6-7.3-5.06-20.82.72-30.14,4.25,5.37,11.31,14.25,14.07,19.23,3.47-1.74,7.7-2.03,11.48.29,3.77-4.89,9.95-14.37,15.21-19.66,4.91,7.91,6.69,25.22-2.01,32.29,1.74,4.12,1.29,10.87-2.87,15.93-4.11,5,5.23,14.32,4.02,20.53h-39.9Zm0,0"/>
  <path class="cls-10" d="m717.18,47.11c7.96-10.49,10.53-.4,14.23-.36,3.7.04,8.06-10.28,14.94,1.42.88,1.49,5.59,2,5.34,3.2-1.52,7.2-5.36,9.94-6.4,14.23-1.8,7.35-2.26,13.83-2.31,17.41l-20.81-.18c-.32-4.49-.58-9.73-2.14-16.87-1.07-4.9-6.83-8.41-8.18-14.23-.51-2.19,4.21-3.15,5.34-4.62h0Zm0,0"/>
  <path class="cls-21" d="m722.88,44.52c-2.65.29-3.22,5.28.72,5.17,3.38-.1,3.54-5.64-.72-5.17h0Zm0,0"/>
  <path class="cls-21" d="m731.96,49.91c-3.33.15-3.8,4.21,0,4.12,3.57-.09,3.23-4.26,0-4.12h0Zm0,0"/>
  <path class="cls-21" d="m732.18,53.41c-.32.01-.59.31-.57.62v3.43c0,.32.28.61.6.61s.61-.29.6-.61v-3.43c.01-.33-.29-.64-.62-.62h0Zm0,0"/>
  <path class="cls-21" d="m727.77,55.43c-.18.04-.35.17-.42.35-.46,1.04-.63,1.86-.4,2.55.22.69.9,1.09,1.55,1.15,1.2.12,2.57-.49,3.77-1.32,1.21.86,2.62,1.49,3.83,1.38.66-.06,1.33-.46,1.55-1.15.22-.69.06-1.51-.4-2.55-.11-.3-.5-.47-.8-.34-.3.13-.44.53-.3.82.4.9.43,1.47.35,1.7-.07.23-.16.29-.52.32-.73.07-2.21-.48-3.3-1.32-.21-.17-.54-.17-.75,0-1.09.83-2.57,1.37-3.3,1.3-.36-.04-.48-.1-.55-.33-.07-.23-.05-.79.35-1.7.19-.39-.22-.93-.65-.85h0Zm0,0"/>
  <path class="cls-21" d="m740.22,44.57c2.65.29,3.22,5.28-.71,5.17-3.38-.1-3.54-5.64.71-5.17h0Zm0,0"/>
  <path class="cls-19" d="m700.16,82.83c.54-6.63-2.85-13.5-4.6-15.92,5.66-3.18,5.5-12.03,3.7-26.41,10.2-.93,7.43-38.53-.4-40.35-7.62-1.77-15.73,12.74-17.82,23.72-4.52-2.43-16.7-2.8-21.74-.56-1.71-11.73-8.73-25.04-16.21-22.48-7.85,2.68-12.48,37.62-2.01,38.72-2.42,13.66-2.4,25,2.8,26.93-1.62,3.46-3.66,10.62-3.27,16.73l59.53-.37Zm0,0"/>
  <path class="cls-21" d="m669.84,44.27c-5.73.21-6.99,7.58.25,7.73,7.23.15,5.79-7.95-.25-7.73h0Zm0,0"/>
  <path class="cls-21" d="m670.35,40.36c-4.27.1-7.93,1.96-10.6,4.3-2.67,2.34-4.38,5.15-4.68,7.43-.04.31.21.64.53.68.31.04.63-.21.67-.53.23-1.79,1.78-4.49,4.28-6.67,2.5-2.19,5.89-3.91,9.82-4,3.93-.09,7.21,1.5,9.7,3.62,2.49,2.12,4.19,4.8,4.9,6.8.08.33.47.54.78.43.32-.11.48-.52.34-.82-.8-2.23-2.59-5.05-5.25-7.32-2.66-2.28-6.23-4-10.5-3.9h0Zm0,0"/>
  <path class="cls-21" d="m670.13,51.43c-.28.05-.5.32-.5.6l-.15,6.05c0,.31.27.61.58.61.31,0,.61-.27.61-.59l.15-6.05c.02-.36-.34-.69-.7-.62h0Zm0,0"/>
  <path class="cls-41" d="m659.02,42.71c-.19-5.27-8.05-5.47-8.2.47-.12,5.04,8.39,4.6,8.2-.47h0Zm0,0"/>
  <path class="cls-21" d="m655.01,40.25c-3.19.11-3.49,5.46.13,4.92,3.49-.52,2.57-5.02-.13-4.92h0Zm0,0"/>
  <path class="cls-41" d="m680.81,42.15c.19-5.27,8.05-5.47,8.2.47.13,5.04-8.38,4.6-8.2-.47h0Zm0,0"/>
  <path class="cls-21" d="m684.82,39.69c3.19.11,3.49,5.46-.13,4.92-3.49-.52-2.58-5.02.13-4.92h0Zm0,0"/>
  <path class="cls-15" d="m675.1,63.74c-3.4,2.61-8.77.74-9.66.21-1.55.89-3.11,2.07-4.18,2.53-.97,3.77.73,2.69.73,5.83-1.76,2.31-1.4,4.14-.23,6.23-.74,1.02-2.14,2.71-.5,4.56l19.93.18c1.04-1.93-.11-4.11-1.05-4.9,2.47-3.7-.63-4.6.2-6.49,1.2-1.2,1.74-3.79.48-5.72-2.06.03-3.39-.56-5.72-2.43h0Zm0,0"/>
  <path class="cls-21" d="m655.35,54.61c-.28.04-.52.29-.53.58-.14,1.77-.26,4.4.53,6.72.39,1.16,1.02,2.25,2.02,3.05,1,.8,2.35,1.28,4.07,1.3,1.21.02,2.28-.55,3.2-1.32.92-.78,1.75-1.79,2.48-2.78.73-.98,1.38-1.95,1.95-2.63.29-.34.54-.59.75-.75.21-.16.33-.2.38-.2.11,0,.63.36,1.2,1.07.58.71,1.25,1.7,1.98,2.7.73,1,1.53,1.99,2.45,2.78.92.78,2,1.36,3.2,1.35,1.73-.02,3.07-.5,4.08-1.3,1-.8,1.63-1.89,2.02-3.05.78-2.32.66-4.98.52-6.75-.02-.32-.34-.58-.65-.55-.31.03-.58.34-.55.65.14,1.73.23,4.24-.45,6.25-.34,1.01-.87,1.88-1.65,2.5-.78.63-1.84,1.03-3.35,1.05-.82.01-1.6-.38-2.4-1.05-.8-.67-1.54-1.63-2.25-2.6-.71-.97-1.38-1.94-2-2.73-.63-.78-1.2-1.48-2.08-1.52-.45-.03-.84.17-1.17.43-.34.25-.64.57-.95.95-.63.75-1.29,1.74-2,2.7-.71.96-1.48,1.88-2.27,2.55s-1.59,1.06-2.4,1.05c-1.52-.02-2.57-.41-3.35-1.03-.78-.62-1.28-1.49-1.62-2.5-.68-2.01-.61-4.55-.48-6.27.04-.36-.32-.69-.67-.65h0Zm0,0"/>
  <path class="cls-21" d="m665.65,62.73c-.35.04-.6.44-.5.78.25.8.95,1.33,1.78,1.68.82.34,1.8.53,2.82.57,1.02.04,2.06-.06,2.98-.35.91-.29,1.76-.77,2.22-1.55.16-.27.05-.67-.22-.82-.28-.16-.67-.05-.83.23-.25.41-.78.77-1.52,1-.75.23-1.68.34-2.57.3-.9-.04-1.75-.21-2.4-.48-.64-.27-1.02-.64-1.1-.93-.08-.27-.37-.46-.65-.43h0Zm0,0"/>
  <path class="cls-9" d="m686.82,24.35c-1.69-6.35,8.4-22.46,10.78-18.48,6.31,3.82,7.6,28.39.77,29.52-3.23-4.27-7.18-7.54-11.55-11.04h0Zm0,0"/>
  <path class="cls-9" d="m654.48,25.3c1.69-6.35-8.39-22.46-10.78-18.48-6.31,3.82-7.6,28.39-.77,29.52,3.23-4.27,6.43-8.11,11.55-11.04h0Zm0,0"/>
  <path class="cls-30" d="m789.22,28.52c1.03-3.45,4.34-9.79,9.35-13.18,3.34,4.41,4.39,10.74,4.2,15.41.05.98-.13,1.38-.36,2.06-4-1.79-8.06-3.69-13.19-4.28h0Zm0,0"/>
  <path class="cls-30" d="m776.98,27.98c-1.04-3.45-3.94-8.85-8.95-12.25-3.34,4.41-4.23,11.44-4.04,16.1.13,1.14.46,1.47.81,2.05,4.95-.77,7.7-5.52,12.17-5.91h0Zm0,0"/>
  <path class="cls-19" d="m756.58,82.96c-.28-1.78-.14-4.73.82-6.01-.55.05-1.21.85-1.96,1.5.04-3.45,4.68-6.33,5.85-6.93-1.09-.6-.74-2.28-1.07-3.69-.24.47-.4,1.4-.61,2.43-1.03-.86-2.23-2.04-2.34-3.89-3.45-34.14,13.95-43.64,26.33-36.36,8.9-6.44,31.15-.12,28.26,37.91-.25-.22-.74-.45-.93-.86-.28,1.19-1.02,2.19-1.37,2.9-.48-.9-.79-1.32-.79-2.15.12,2.18-.42,2.87-.8,3.55.7.39,4.6,2.52,4.76,6.18-.99-.53-1.57-1.11-1.96-1.25,1.63,1.7,2.06,4.98,1.82,6.45l-56,.21Zm0,0"/>
  <path class="cls-7" d="m766.8,72.77c-3.16-2.53-1.24-11.8-2.72-5.27-3-4.99-.3-13.29,2.91-17.89-.97.27-2.05,1.32-2.18,2-.45-3.43,1.26-8.23,4.36-11.71-1.12.29-2.52,1.52-2.73,2.27,0-8.05,12.6-7.47,14.26-4.72,1.35.75,2.07,1.42,2.81,2.27,2.14-1.66,4.19-4.71,8-3.45,4.5-.66,9.78,3.84,10.35,7.63-.83-1.12-1.38-1.19-2.18-1.45,2.18,2.23,3.39,5.53,3.27,8.18-.88-1.38-2.23-1.38-2.81-1.73,3.67,4.18,5.46,11.05,4.9,17.16-.48-1.27-1.01-1.59-2.09-2.09,1.82,3.26.9,9-.91,10.08-1.85-.99-2.78-1.9-4.72-2.54.89.9,1.45,1.64,2.18,2.54-2.81.18-6.28-.58-7.99-2.73.33,1.38.95,2.22,1.82,2.91-3.28.09-7.18-1.32-8.9-4.18-1.95,2.3-4.12,3.82-7.45,3.27,1.56-.75,1.94-1.45,2.18-2.91-2.26,2.23-6.45,3.6-9.08,2.72,1.29-.95,1.77-1.3,2.18-2.54-1.83,1.74-2.58,2.18-5.45,2.18h0Zm0,0"/>
  <path class="cls-21" d="m783,48.62c-4.03.25-4.11,4.88-.17,5.06,4.66.21,4.39-5.32.17-5.06h0Zm0,0"/>
  <path class="cls-21" d="m783.23,53.06c-.27.05-.48.32-.48.6v3c0,.32.28.61.6.61s.6-.29.6-.61v-3c0-.36-.37-.68-.72-.6h0Zm0,0"/>
  <path class="cls-27" d="m774.82,50.26c-.11,0-.22.05-.3.12-1.44,1.15-7.53,4.51-7.07,10.15-.01.27.25.52.52.5.27-.02.48-.31.43-.58-.39-4.91,5.02-7.96,6.73-9.32.34-.23.11-.9-.3-.88h0Zm0,0"/>
  <path class="cls-27" d="m772.43,54.81c-.06.02-.11.04-.15.07-1.12.72-2.14,2.28-2.62,4.05-.48,1.77-.4,3.8.98,5.3.16.21.51.25.71.06.19-.18.19-.54-.01-.71-1.1-1.19-1.18-2.84-.75-4.4.43-1.57,1.41-2.99,2.2-3.5.37-.24.09-.96-.35-.88h0Zm0,0"/>
  <path class="cls-27" d="m774.68,59.48s-.05.01-.07.03c-.48.17-.77.59-1.03,1.1-.26.51-.46,1.14-.55,1.85-.17,1.42.13,3.16,1.4,4.48.17.21.52.23.71.03.19-.19.17-.54-.04-.71-1.03-1.07-1.27-2.47-1.12-3.68.07-.6.25-1.16.45-1.55.2-.39.46-.61.5-.63.23-.08.37-.35.31-.58-.06-.24-.32-.39-.56-.35h0Zm0,0"/>
  <path class="cls-27" d="m778.77,60.16c-.05.01-.1.04-.15.07-.62.39-1.42.99-2.05,1.73-.63.74-1.13,1.66-.93,2.65.02.28.31.51.58.45.27-.06.45-.39.34-.65-.11-.56.19-1.2.73-1.83.53-.63,1.27-1.18,1.82-1.52.23-.09.37-.39.27-.62-.09-.24-.39-.37-.62-.28h0Zm0,0"/>
  <path class="cls-21" d="m783.25,56.41c-.19.02-.36.14-.45.3-.41.69-1.03,1.07-1.65,1.23-.62.15-1.24.02-1.47-.12-.27-.17-.67-.08-.84.19-.17.27-.08.66.19.84.65.42,1.51.47,2.4.25.68-.17,1.34-.61,1.9-1.23.5.5,1.09.97,1.78,1.23.9.34,2.01.3,2.88-.45.23-.21.26-.61.05-.85-.21-.24-.61-.26-.85-.05-.52.45-1.02.46-1.65.23-.63-.23-1.3-.77-1.75-1.32-.12-.16-.32-.24-.52-.23h0Zm0,0"/>
  <path class="cls-27" d="m787.8,60.18c-.4.06-.51.71-.15.9.18.1.4.18.7.35.3.16.68.38,1.02.67.69.58,1.26,1.41,1.25,2.65,0,.25.23.49.49.49s.49-.23.49-.49c.02-1.56-.8-2.68-1.62-3.38-.41-.35-.83-.61-1.18-.8-.34-.19-.63-.3-.68-.32-.09-.06-.21-.09-.32-.07h0Zm0,0"/>
  <path class="cls-27" d="m792.88,61.21c-.33.1-.44.6-.18.82-.1-.09.06.13.12.4.07.27.1.63.1,1.05,0,.84-.2,1.84-.8,2.62-.15.2-.1.53.1.68.2.15.52.1.67-.1.78-1.01,1-2.21,1-3.2,0-.49-.06-.94-.15-1.3-.09-.36-.14-.6-.43-.85-.11-.11-.29-.16-.45-.13h0Zm0,0"/>
  <path class="cls-27" d="m794.18,58.26c-.36.07-.49.62-.2.85,2.08,1.69,2.18,4.2.47,5.95-.21.17-.23.52-.04.71.19.19.55.17.72-.04,2.06-2.11,1.9-5.36-.55-7.35-.1-.1-.26-.15-.4-.12h0Zm0,0"/>
  <path class="cls-27" d="m794.1,54.01c-.39.07-.48.72-.12.9,1.86.98,2.84,2.09,3.35,3.28.51,1.18.56,2.47.5,3.75-.05.27.19.55.46.56.27,0,.52-.26.49-.54.07-1.33.02-2.76-.57-4.15-.6-1.39-1.76-2.7-3.77-3.75-.1-.06-.21-.07-.32-.05h0Zm0,0"/>
  <path class="cls-27" d="m792.4,49.68c-.37.08-.47.67-.15.88,1.15.73,3.35,1.75,5.18,3.32,1.82,1.57,3.25,3.59,2.93,6.45-.05.26.15.54.41.57.26.03.52-.18.54-.45.36-3.22-1.3-5.62-3.25-7.3-1.96-1.68-4.26-2.75-5.28-3.4-.11-.07-.25-.1-.38-.07h0Zm0,0"/>
  <path class="cls-21" d="m774.11,40.69c-3.43.04-3.59,4.88-.17,4.78,3.43-.1,3.37-4.82.17-4.78h0Zm0,0"/>
  <path class="cls-21" d="m792.16,40.7c3.3.02,3.59,4.77.17,4.78-3.43,0-3.38-4.8-.17-4.78h0Zm0,0"/>
  <path class="cls-34" d="m805.95,52.18c-.28.02-.5.33-.43.6.29,1.16.56,4.79.45,8.53-.11,3.73-.65,7.68-1.68,9.52-.12.22-.04.54.19.66.22.12.54.04.66-.19,1.23-2.21,1.66-6.18,1.78-9.98.11-3.79-.12-7.33-.48-8.77-.05-.22-.27-.39-.5-.38h0Zm0,0"/>
  <path class="cls-7" d="m761.72,78.58c1.02-.95,1.48-1.29,2.54-1.27-.74,1.53-1.7,3.49-1.82,5.4l44.69.05c.47-1.2-.04-3.04-1.45-4.54,1.14.17,1.79.64,2.54,1.45-.82-2.21-1.58-3.49-3.82-4.72-.93-1.12-1.18-1.79-2.09-2.09-6.76-5.54-32.43-8.27-36.79,1.09-1.37.73-2.9,1.79-3.82,4.63h0Zm0,0"/>
  <path class="cls-27" d="m780.85,69.06c-.14.03-.26.12-.33.25-.42.74-.98,1.54-1.67,2.12-.69.59-1.48.97-2.4.95-.27-.05-.55.19-.56.46,0,.27.26.52.54.49,1.2.03,2.23-.48,3.05-1.18.81-.7,1.43-1.57,1.9-2.37.21-.32-.15-.82-.52-.72h0Zm0,0"/>
  <path class="cls-27" d="m783.1,69.06c-.21.02-.4.19-.43.4-.11.56.09,1.12.4,1.6.31.48.75.92,1.28,1.3,1.05.76,2.42,1.34,3.67,1.55.25.05.52-.14.56-.39.05-.25-.14-.52-.39-.56-1.08-.19-2.35-.73-3.27-1.4-.46-.33-.83-.69-1.05-1.03-.22-.34-.3-.64-.25-.9.06-.3-.22-.61-.52-.57h0Zm0,0"/>
  <path class="cls-27" d="m787.3,69.76c-.17.06-.3.2-.32.38-.11.52.11,1.02.42,1.43.32.4.75.76,1.25,1.07,1,.63,2.26,1.12,3.28,1.47.25.13.59-.01.68-.27.09-.26-.11-.58-.38-.62-.98-.34-2.16-.84-3.05-1.4-.45-.28-.82-.59-1.03-.85-.21-.26-.26-.44-.22-.62.09-.34-.3-.69-.62-.57h0Zm0,0"/>
  <path class="cls-27" d="m791.77,70.21c-.28.04-.48.38-.38.65.35.93,1.26,1.45,2.28,1.85,1.01.4,2.2.7,3.3,1.08.24.09.54-.06.62-.3.08-.24-.06-.54-.3-.63-1.15-.4-2.35-.69-3.28-1.05-.92-.36-1.53-.79-1.72-1.3-.08-.2-.31-.34-.53-.3h0Zm0,0"/>
  <path class="cls-27" d="m795.95,69.86c-.25.05-.43.33-.38.58.06.29.13.31.23.4.09.09.22.2.35.3.27.2.62.43,1.03.65.81.45,1.82.88,2.82.88.25,0,.49-.23.49-.49s-.23-.48-.49-.48c-.72,0-1.65-.35-2.38-.75-.36-.2-.68-.41-.9-.58-.11-.08-.18-.15-.23-.2-.02-.02,0,.05,0,.05-.06-.23-.32-.39-.55-.35h0Zm0,0"/>
  <path class="cls-27" d="m770.73,70.43c-.06.01-.13.04-.18.07-1.08.67-1.91,1.48-2.95,1.52-.26.02-.48.26-.46.51.01.26.26.48.51.47,1.48-.07,2.48-1.09,3.43-1.68.24-.09.37-.39.28-.62-.09-.23-.39-.37-.62-.27h0Zm0,0"/>
  <path class="cls-27" d="m776.82,70.66c-.06,0-.12.02-.18.05-1.64.85-3.8,1.65-5.77,1.9-.27,0-.5.27-.48.53.03.27.32.48.58.42,2.13-.27,4.39-1.08,6.13-1.98.24-.07.39-.36.32-.6-.07-.24-.36-.4-.6-.32h0Zm0,0"/>
  <path class="cls-34" d="m760.07,74.13c-.18.02-.35.14-.45.3.04-.07-.02,0-.05.05-.03.04-.05.1-.1.18-.11.15-.27.37-.43.62-.32.51-.71,1.21-1.05,2-.69,1.59-1.21,3.62-.2,5.3.13.32.56.46.86.29.3-.18.38-.63.16-.89-.68-1.13-.35-2.78.28-4.22.31-.72.67-1.38.97-1.85.15-.24.28-.43.38-.57.05-.07.09-.13.12-.18.03-.04.02-.04.07-.12.22-.38-.14-.94-.57-.9h0Zm0,0"/>
  <path class="cls-34" d="m808.45,75.06c-.4.09-.59.66-.32.97-.03-.04.06.05.12.15.07.1.16.25.27.42.23.36.53.87.83,1.45.59,1.16,1.15,2.66,1.15,4,0,.32.28.61.6.61s.6-.29.6-.61c0-1.66-.64-3.3-1.27-4.55-.32-.63-.65-1.16-.9-1.55-.13-.19-.22-.34-.3-.45-.08-.11-.12-.16-.18-.23-.14-.18-.38-.27-.6-.22h0Zm0,0"/>
  <path class="cls-34" d="m764.65,36.08c-.05.02-.1.06-.15.1-1.41,1.08-2.48,3.14-3.38,5.75-.89,2.6-1.58,5.76-2.05,9-.94,6.47-1.05,13.24-.12,16.7.06.25.34.43.6.37.25-.07.41-.37.33-.62-.83-3.12-.78-9.91.15-16.3.46-3.19,1.14-6.3,2-8.82.87-2.53,1.94-4.48,3.05-5.32.38-.26,0-1-.43-.85h0Zm0,0"/>
  <path class="cls-34" d="m763.05,49.56c-.17.03-.32.16-.38.32-2.53,6.6-2.23,14.75-1.25,20.62.04.25.3.44.55.4.25-.04.44-.3.4-.55-.96-5.77-1.23-13.82,1.2-20.15.12-.31-.19-.71-.52-.65h0Zm0,0"/>
  <path class="cls-34" d="m804.5,37.53c-.37.08-.47.68-.15.88.11.08.38.36.67.8.29.44.62,1.04.98,1.77.71,1.48,1.5,3.51,2.15,6.03,1.31,5.02,2.12,11.93.9,19.95-.05.26.15.54.41.57.26.03.52-.18.54-.45,1.25-8.16.44-15.16-.9-20.3-.67-2.57-1.48-4.68-2.23-6.22-.37-.77-.73-1.41-1.05-1.9-.32-.49-.6-.83-.9-1.05-.12-.09-.28-.12-.43-.07h0Zm0,0"/>
  <path class="cls-34" d="m805.77,45.73c-.34.01-.57.47-.38.75,1.81,2.96,2.44,7.46,2.45,11.93.01,4.47-.57,8.92-1.1,11.8-.04.25.15.51.4.55.25.04.51-.15.55-.4.54-2.93,1.12-7.39,1.1-11.95-.02-4.55-.62-9.19-2.6-12.43-.08-.15-.25-.25-.43-.25h0Zm0,0"/>
  <path class="cls-42" d="m197.82,82.96c.2-7.48,4.2-17.02,7.72-19.47-.98-.87-1.25-3.58,1.48-4.61-6.05-10.07-6.5-17.7,1.51-29.46-4.01,2.41-8.75,7.85-10.22,5.38-2.76-4.62,2.56-15.31,8.35-17.66,3-1.21,4.74-2.12,8.14.16,2.23-4.23,10.34-5.78,19.64-6.15,9.3-.36,20.22,3.62,22.29,7.88,2.43-2.55,6.74-1.56,9.17.05,5.36,3.54,9.51,12.14,6.37,15.92-1.93,2.32-7.57-3.72-10.37-5.59,7.14,11.43,7.62,19.24,1.23,30.26,2.56.83,2.95,2.52,2.14,4.27,3.89,2.23,8.32,11.24,8.73,19.07l-76.2-.05Zm0,0"/>
  <path class="cls-21" d="m224.57,17.91c-1.23.16-2.48.53-3.7,1.15-.26.09-.4.42-.28.67.12.25.48.34.7.18,4.48-2.29,9.31-.88,12.22,2.15.18.19.52.19.7,0,3.01-3.17,8.32-4.64,12.67-1.93.21.16.55.11.7-.12.14-.22.06-.56-.17-.68-4.64-2.88-10.2-1.47-13.55,1.77-2.38-2.29-5.76-3.65-9.3-3.2h0Zm0,0"/>
  <path class="cls-21" d="m254.18,66.23c-.08.01-.16.05-.23.1-10.07,6.79-26.04,6.04-35.68.18-.21-.13-.53-.05-.66.16-.13.22-.05.53.16.66,10,6.08,26.25,6.85,36.73-.23.36-.24.1-.93-.32-.88h0Zm0,0"/>
  <path class="cls-2" d="m208.36,29.61c1.43-3.81,3.1-9.54,5.21-13.06-7.91-4.41-21.03,12.11-14.91,19.15,1.34,1.28,6.28-3.57,9.7-6.09h0Zm0,0"/>
  <path class="cls-2" d="m262.7,30.09c-1.42-3.81-2.64-8.44-4.75-11.96,9.91-5.44,19.49,14.18,13.7,17.57-1.17.69-5.46-2.61-8.95-5.61h0Zm0,0"/>
  <path class="cls-1" d="m233.46,27.53c-6.9.2-16.91,6.53-17.73,16.58-.86,10.4.08,15.86,14.08,15.36,4.32-.15,5.6-.3,9.26-.22,15.54.37,15-4.81,14.16-15.9-.79-10.43-12.87-16.01-19.77-15.82h0Zm0,0"/>
  <path class="cls-40" d="m222.62,31.35c-1.66-3.7-8.5-1.09-6.85,2.86,1.74,4.17,8.57.99,6.85-2.86h0Zm0,0"/>
  <path class="cls-21" d="m218.2,31c-2.26.87-1.38,5.08,1.84,3.56,2.27-1.07.97-4.64-1.84-3.56h0Zm0,0"/>
  <path class="cls-40" d="m245.52,30.83c1.66-3.7,8.49-1.09,6.85,2.86-1.74,4.17-8.57.98-6.85-2.86h0Zm0,0"/>
  <path class="cls-21" d="m249.93,30.48c2.26.87,1.38,5.08-1.84,3.56-2.27-1.08-.97-4.65,1.84-3.56h0Zm0,0"/>
  <path class="cls-21" d="m233.41,32.16c-5.74.14-5.55,6.91.37,6.63,6.42-.3,6.52-6.79-.37-6.63h0Zm0,0"/>
  <path class="cls-21" d="m233.82,38.11c-.27.07-.47.35-.45.62.06,2.12.21,5.16.05,8.03-.02.31.25.62.56.64.31.02.62-.25.64-.56.16-2.96,0-6.05-.05-8.15,0-.36-.4-.67-.75-.58h0Zm0,0"/>
  <path class="cls-21" d="m233.77,30.01c-8.16.19-12.91,6.96-15.52,10.2-.25.24-.23.68.04.9.26.21.71.14.89-.15,2.68-3.32,7.12-9.57,14.62-9.75,3.73-.09,7.05,1.59,9.68,3.7,2.62,2.11,4.55,4.66,5.42,6.18.13.32.57.46.86.29.3-.18.38-.62.17-.89-.96-1.67-2.93-4.3-5.7-6.52-2.77-2.22-6.35-4.05-10.45-3.95h0Zm0,0"/>
  <path class="cls-21" d="m229.75,54.58c-.47-.02-.79.65-.48,1,.97,1.23,2.93,1.61,4.85,1.62,1.93.02,3.85-.31,4.85-1.48.21-.24.18-.64-.05-.85-.24-.21-.64-.19-.85.05-.5.58-2.22,1.09-3.95,1.07-1.73-.02-3.41-.55-3.9-1.18-.11-.15-.29-.25-.48-.25h0Zm0,0"/>
  <path class="cls-21" d="m250.07,45.38c-.32.05-.57.4-.5.72.67,3.1.33,5.79-.57,7.68-.91,1.89-2.35,2.97-3.98,3.1-3.14.25-5.3-1.11-6.95-3.25-1.65-2.14-2.72-5.07-3.43-7.78-.12-.53-1.07-.51-1.17.03-.71,2.73-1.77,5.66-3.43,7.8-1.65,2.14-3.8,3.5-6.95,3.25-1.63-.13-3.07-1.22-3.98-3.1-.91-1.88-1.24-4.55-.57-7.65.07-.31-.16-.65-.46-.72-.3-.07-.65.16-.71.47-.72,3.32-.37,6.25.68,8.42,1.05,2.18,2.84,3.6,4.95,3.78,3.54.29,6.18-1.34,8-3.7,1.45-1.88,2.36-4.21,3.07-6.5.71,2.27,1.61,4.58,3.05,6.45,1.82,2.36,4.46,3.99,8,3.7,2.11-.17,3.9-1.62,4.95-3.8,1.05-2.18,1.39-5.1.68-8.43-.06-.3-.38-.52-.68-.47h0Zm0,0"/>
  <path class="cls-31" d="m17.68,92.56c.85.04.88.65,1.06,1.2,1.33-1.19.96-3.44.49-4.8.82-.36,1.29-.03,1.64.4.3-1.96-.32-4.24-1.57-4.97,1.07-.39,1.75.66,2.13.96.27-2.05-1.23-4.34-2.29-4.96.37-.5,1.49.18,1.76.28-2.41-4.25-4.69-5.95-9.49-3.32-5.27-1.79-7.67-.13-8.78,1.68.8-.13,1.66.27,1.88.4-2.27.98-3.45,1.88-3.84,4.16.7-.65,1.61-.73,2.37-.48-2.25,1.22-2.5,4.04-1.8,6.09.52-.96,1.46-1.16,2.21-1.6-1.6,2.25-1.52,4.98.61,6.57-.02-1.05.5-2.42,1.02-3.25-1.84,2.14,1.06,4.56,2.58,5.34,0-.97.48-2.14.73-2.54.4,1.56,1.01,2.92,2.29,3.91.37-.93.86-1.35,1.2-2.01.71.34.57,1.18.74,1.68,1.45-.1,2.12-1.52,2.37-2.24.63.71.86,1.39.9,2,1.17-1.05,1.8-2.88,1.8-4.48h0Zm0,0"/>
  <path class="cls-31" d="m46.37,94.26c-.84.04-.88.65-1.06,1.2-1.33-1.19-.96-3.43-.49-4.8-.82-.36-1.28-.03-1.63.4-.3-1.96.32-4.24,1.57-4.97-1.06-.39-1.75.66-2.12.96-.27-2.05,1.23-4.34,2.29-4.96-.38-.5-1.49.18-1.76.28,2.41-4.25,4.68-5.95,9.49-3.31,5.27-1.79,7.66-.13,8.78,1.68-.8-.13-1.66.27-1.88.4,2.27.98,3.46,1.87,3.85,4.16-.7-.65-1.61-.73-2.38-.48,2.25,1.22,2.5,4.04,1.8,6.09-.53-.96-1.47-1.16-2.21-1.6,1.61,2.24,1.52,4.98-.61,6.57.02-1.05-.5-2.41-1.02-3.26,1.84,2.14-1.05,4.56-2.58,5.34,0-.97-.48-2.14-.73-2.54-.4,1.56-1.01,2.92-2.29,3.91-.37-.93-.86-1.35-1.2-2.01-.71.34-.56,1.18-.73,1.68-1.45-.1-2.12-1.51-2.37-2.24-.63.71-.86,1.39-.9,2-1.17-1.05-1.8-2.89-1.8-4.48h0Zm0,0"/>
  <path class="cls-36" d="m74.02,82.16c1.73-5.93,11.3-4.18,13.26,1.53,6.83,19.85-16.52,9.64-13.26-1.53h0Zm0,0"/>
  <path class="cls-36" d="m119.91,77.07c-7.34-1.36-10.27,18.04-5.61,19.89,6.07,2.41,12.5-10.1,13.52-15.04-1.84-3.24-4.57-4.22-7.91-4.84h0Zm0,0"/>
  <path class="cls-37" d="m74.02,82.16c1.73-5.93,11.3-4.18,13.26,1.53,6.83,19.85-16.52,9.64-13.26-1.53h0Zm0,0"/>
  <path class="cls-37" d="m119.91,77.07c-7.34-1.36-10.27,18.04-5.61,19.89,6.07,2.41,12.5-10.1,13.52-15.04-1.84-3.24-4.57-4.22-7.91-4.84h0Zm0,0"/>
  <path class="cls-16" d="m141.25,86.25c-8.93-.23-5.46-8.61,0-8.41,5.57.2,8.85,8.65,0,8.41h0Zm0,0"/>
  <path class="cls-16" d="m184.16,77.57c-5.87.45-8.13,8.35.77,8.41,8.19.06,5.46-8.89-.77-8.41h0Zm0,0"/>
  <path class="cls-35" d="m202.52,83.95c-11.6-.11-7.7-10.41-.51-10.45,8.32-.05,11,10.56.51,10.45h0Zm0,0"/>
  <path class="cls-35" d="m269.07,83.7c10.93.21,6.33-10.59-.77-10.84-6.99-.24-13.17,10.57.77,10.84h0Zm0,0"/>
  <path class="cls-26" d="m289.77,80.95c-.5-3.61,2.64-7.08,6.57-4,2.45-3.37,6.61-.96,7.59,2.18,2.44-1.2,6.36,2.57,3.14,6.1,2.41,1.8,1.86,5.96-2.29,5.61-3.3,2.5-6.18,1.49-7.4-1.02-3.2.99-5.79.33-6.12-2.55-2.95.58-5.23-4.23-1.49-6.32h0Zm0,0"/>
  <path class="cls-26" d="m350.07,77.14c-2.08-3.93-7.96-1.42-7.31,2.47-5.08,0-5.83,4.95-4.08,7.14-3.41,3.3-2.2,6.33,1.79,7.91.62,3.75,6.98,3.79,6.89.25,4.46.42,6.58-2.7,5.61-5.36,3.67.17,5.26-4.44,2.98-5.8,3-4.18-.97-8.82-5.87-6.61h0Zm0,0"/>
  <path class="cls-32" d="m375.15,74.7c-11.74,2.47-4.35,22.76,3.28,20.76,7.15-1.88,4.33-22.36-3.28-20.76h0Zm0,0"/>
  <path class="cls-32" d="m412.29,74.7c-7.36-2.09-14.37,17.98-6.01,19.66,5.56,1.12,17.34-16.44,6.01-19.66h0Zm0,0"/>
  <path class="cls-28" d="m431.95,76.89c-16.67,2.73-2.96,28.92,6.55,24.04,8.54-4.38,4.09-25.78-6.55-24.04h0Zm0,0"/>
  <path class="cls-28" d="m486.03,75.8c-12.05-4.48-15.62,22.71-6.01,25.12,9.04,2.27,19.9-19.97,6.01-25.12h0Zm0,0"/>
  <path class="cls-37" d="m510.06,74.7c-9.31-.22-15.43,15.6,0,15.29,14.28-.28,10.52-15.04,0-15.29h0Zm0,0"/>
  <path class="cls-37" d="m559.22,75.8c-9.34.18-16.02,13.55-.55,13.65,15.34.1,8.53-13.81.55-13.65h0Zm0,0"/>
  <path class="cls-29" d="m582.71,76.34c-5.31.45-11.27,11.36,1.64,9.83,7.49-.89,5.84-10.45-1.64-9.83h0Zm0,0"/>
  <path class="cls-29" d="m629.68,76.89c-2.53.68-7.92,8.03,1.09,8.74,9.89.78,6.83-10.88-1.09-8.74h0Zm0,0"/>
  <path class="cls-24" d="m648.81,77.43c-9.32,2.42-2.67,24.67,7.1,22.39,7.75-1.8,8.33-26.41-7.1-22.39h0Zm0,0"/>
  <path class="cls-24" d="m690.86,77.43c-11.04-2.53-15.91,21.75-5.46,24.04,8.79,1.92,19.82-20.74,5.46-24.04h0Zm0,0"/>
  <path class="cls-38" d="m710.53,76.34c-8.02,1.32-2.55,17.34,2.73,15.84,6.09-1.72,4.22-16.98-2.73-15.84h0Zm0,0"/>
  <path class="cls-38" d="m753.13,75.8c-4.48-2.11-9.64,12.01-3.82,15.84,3.75,2.47,12.17-11.91,3.82-15.84h0Zm0,0"/>
  <path class="cls-33" d="m804.18,77.33c-5.17.14-7.6,8.26.09,7.75,8.8-.59,4.4-7.87-.09-7.75h0Zm0,0"/>
  <path class="cls-33" d="m764.84,76.82c-4.69.16-8.65,8.98,1.02,8.27,6.91-.51,4.38-8.45-1.02-8.27h0Zm0,0"/>
</svg>